PathFileType	4	(X/Y/Z)	C:\Users\WrightLab\Desktop\Jo\P2_Trial25.trc
DataRate	CameraRate	NumFrames	NumMarkers	Units	OrigDataRate	OrigDataStartFrame	OrigNumFrames
100.00	100.00	       9	19	mm	100.00	199	       529
Frame#	Time	Headset_Front			Headset_Back			Headset_Left			Headset_Right			Left_Shoulder			Right_Shoulder			Sternum			C7			Left Elbow			Right Elbow			Left Wrist			Right Wrist			Left ASIS			Right ASIS			S2			Left Knee			Right Knee			Left Ankle			Right Ankle			
		X1	Y1	Z1	X2	Y2	Z2	X3	Y3	Z3	X4	Y4	Z4	X5	Y5	Z5	X6	Y6	Z6	X7	Y7	Z7	X8	Y8	Z8	X9	Y9	Z9	X10	Y10	Z10	X11	Y11	Z11	X12	Y12	Z12	X13	Y13	Z13	X14	Y14	Z14	X15	Y15	Z15	X16	Y16	Z16	X17	Y17	Z17	X18	Y18	Z18	X19	Y19	Z19	

199	1.980	-766.76154	1434.22949	68.34364	-797.91095	1659.68103	-139.46210	-683.86414	1537.08337	-91.85404	-874.23981	1531.09814	34.77093	-701.12054	1429.11292	-180.23035	-1013.16022	1415.33044	-119.67528	-843.86456	1293.46155	-103.76218	-889.75751	1425.45837	-258.04294	-514.87616	1222.27466	-306.94614	-1145.26648	1097.04993	-166.04773	-628.10052	1041.29602	-272.26752	-1182.36230	842.64288	-129.30724	-793.67249	993.84271	-83.89671	-930.12079	999.74713	-75.23542	-875.48267	926.89459	-341.30109	-750.46588	452.69788	-110.72636	-1065.26904	544.48969	-114.95789	-748.55847	182.18657	-337.29544	-1025.49036	170.55876	88.65679	
200	1.990	-765.56799	1434.97070	72.17553	-797.88861	1661.95251	-131.86694	-683.08588	1539.37061	-85.27300	-874.58392	1531.72705	39.87803	-702.18079	1431.18726	-176.44505	-1012.61359	1417.84900	-110.60168	-843.36438	1296.05920	-95.15079	-891.45264	1427.27271	-251.60114	-516.92969	1225.18286	-305.65137	-1144.42432	1099.25159	-150.54253	-626.97681	1049.57178	-250.91988	-1181.85730	846.91486	-108.43288	-794.09613	999.16510	-78.66900	-927.97870	1003.64740	-67.53977	-876.84125	927.82709	-333.00620	-745.85999	456.72110	-94.95000	-1071.59839	545.38403	-103.79606	-754.65735	191.95656	-319.72272	-1018.78424	164.19980	91.18542	
201	2.000	-763.42010	1436.67102	78.95792	-797.75946	1664.00232	-126.28622	-682.34949	1542.07239	-79.98537	-873.10596	1532.50012	46.39990	-703.10870	1433.72424	-171.52946	-1013.10107	1419.16541	-103.34167	-841.93787	1298.27820	-89.12530	-893.74243	1429.35107	-243.95326	-519.41113	1227.92444	-303.92145	-1143.42542	1102.23730	-135.73416	-629.41364	1051.95105	-248.15718	-1180.99670	851.07019	-84.52169	-793.71173	1003.37958	-71.63972	-928.53583	1005.44489	-64.03697	-879.23444	931.84717	-327.68472	-739.90021	461.34970	-80.08061	-1077.91821	544.84869	-91.36503	-764.63031	198.68840	-301.13330	-1011.06458	158.71181	94.21197	
202	2.010	-762.48120	1437.51440	81.89137	-797.27795	1665.90540	-118.86126	-681.14429	1544.31018	-75.29064	-872.29077	1533.09619	52.33599	-703.56439	1435.69312	-167.88222	-1012.04083	1421.34009	-93.92629	-840.34094	1299.79932	-84.21810	-895.42273	1431.02551	-235.94182	-522.08075	1230.44946	-303.24402	-1142.38782	1105.12268	-120.52419	-629.50793	1056.43530	-245.58696	-1178.92212	854.94305	-63.31905	-793.98346	1008.22083	-65.66297	-927.83807	1007.07452	-55.73379	-880.36798	933.73383	-321.27530	-733.10175	465.93298	-64.21621	-1083.43909	545.10950	-80.30992	-769.81079	207.91597	-283.48773	-1004.42285	153.42636	94.41894	
203	2.020	-760.05817	1439.42554	89.54465	-797.15881	1668.04749	-112.41025	-680.61694	1546.28577	-68.80252	-871.13831	1534.72363	58.05354	-704.69836	1437.53137	-164.65854	-1010.57990	1426.31116	-84.08781	-839.34833	1302.90881	-75.06350	-897.07623	1432.04102	-228.09975	-524.75751	1232.04956	-302.21570	-1140.73608	1107.66931	-106.10125	-632.43872	1058.07190	-241.05672	-1177.31042	860.25482	-39.64471	-793.99689	1012.26819	-59.91682	-927.23798	1007.12427	-48.14819	-881.25073	935.57318	-314.65656	-726.76630	470.18164	-48.50657	-1089.65613	547.12982	-70.20013	-775.87140	216.73419	-262.57574	-999.37152	149.86371	94.90220	
204	2.030	-758.66467	1440.54419	93.93995	-796.18024	1669.40283	-106.37399	-679.39246	1547.70508	-63.45641	-869.11035	1536.04907	64.60910	-704.54218	1439.05701	-160.33156	-1009.43817	1428.44080	-74.44267	-838.22638	1305.40259	-66.86912	-898.92273	1432.84973	-220.83972	-526.33154	1234.10632	-301.32541	-1138.87329	1110.03320	-90.47209	-633.64691	1060.07654	-236.64697	-1174.73376	864.74115	-18.33094	-792.70746	1014.53229	-54.39089	-927.27277	1005.68250	-39.30717	-881.81927	937.30670	-308.57245	-719.26581	474.71759	-33.20877	-1092.00806	548.76776	-58.93348	-781.40936	222.90573	-243.43550	-993.76727	148.01260	92.35040	
205	2.040	-755.77124	1442.13635	101.72427	-795.64001	1670.90186	-100.47376	-678.17999	1548.98730	-58.45304	-866.88208	1537.67529	70.27224	-705.91681	1440.57654	-156.50905	-1008.14874	1430.23279	-65.07563	-837.01105	1306.41858	-63.09794	-901.08795	1434.14136	-213.70244	-529.22760	1235.95642	-299.18600	-1136.78198	1111.78613	-75.47567	-632.51831	1061.37439	-232.64511	-1172.69275	870.64355	4.06736	-791.39160	1015.88489	-49.33650	-926.46271	1006.10822	-28.98454	-881.94910	937.83087	-301.43420	-710.83478	479.41788	-19.60536	-1092.59424	551.84564	-51.52935	-773.09039	234.74687	-217.74864	-990.61017	148.38605	92.43864	
206	2.050	-753.28900	1443.14441	106.08370	-794.89661	1671.71057	-94.44910	-677.02234	1549.99805	-54.17818	-864.09778	1538.58386	77.66135	-706.22064	1441.79797	-152.88304	-1006.50897	1431.51318	-54.67668	-835.26056	1307.95105	-55.41135	-902.48230	1434.52100	-206.08820	-531.39978	1237.29480	-297.75772	-1135.24451	1114.31946	-59.06783	-632.64056	1063.50781	-227.89349	-1167.99072	874.50781	25.95753	-790.09802	1016.41986	-45.05439	-924.44556	1004.39044	-21.81845	-882.81885	939.32562	-295.03674	-701.91656	483.30814	-6.95994	-1091.85669	554.30249	-45.54735	-767.20209	241.46889	-199.07478	-987.74243	148.35732	91.55517	
207	2.060	-748.33264	1444.42517	119.05224	-794.37469	1672.41260	-89.01711	-675.88019	1550.86255	-50.27228	-862.21954	1539.75269	84.28112	-706.52454	1442.94702	-149.70383	-1004.59906	1432.58557	-45.43197	-834.20734	1308.97559	-50.14837	-903.61316	1434.93762	-197.98326	-533.48407	1239.12415	-295.47025	-1134.23120	1116.81274	-42.78401	-633.57025	1064.90039	-223.20993	-1164.65991	878.67334	48.58394	-787.24268	1017.17450	-39.81522	-921.63922	1003.40442	-12.18117	-884.07904	940.74786	-288.20816	-693.33301	486.82242	4.49778	-1089.90564	555.05090	-40.14862	-762.32733	246.29996	-180.17583	-986.32526	147.50584	89.15781	
